# Blender 4.2.0
# www.blender.org
o Cube
v -1.000000 -1.000000 1.000000
v -1.000000 1.000000 1.000000
v -1.000000 -1.000000 -1.000000
v -1.000000 1.000000 -1.000000
v 1.000000 -1.000000 1.000000
v 1.000000 1.000000 1.000000
v 1.000000 -1.000000 -1.000000
v 1.000000 1.000000 -1.000000
vn -1.0000 -0.0000 -0.0000
vn -0.0000 -0.0000 -1.0000
vn 1.0000 -0.0000 -0.0000
vn -0.0000 -0.0000 1.0000
vn -0.0000 -1.0000 -0.0000
vn -0.0000 1.0000 -0.0000
vt 0.000000 1.000000
vt 1.000000 0.000000
vt 0.000000 0.000000
vt 1.000000 1.000000
s 0
f 2/1/1 3/2/1 1/3/1
f 4/1/2 7/2/2 3/3/2
f 8/4/3 5/3/3 7/2/3
f 6/4/4 1/3/4 5/2/4
f 7/4/5 1/3/5 3/1/5
f 4/1/6 6/2/6 8/4/6
f 2/1/1 4/4/1 3/2/1
f 4/1/2 8/4/2 7/2/2
f 8/4/3 6/1/3 5/3/3
f 6/4/4 2/1/4 1/3/4
f 7/4/5 5/2/5 1/3/5
f 4/1/6 2/3/6 6/2/6
o Text
v -0.001000 0.000000 -2.147000
v -0.184000 0.000000 -2.382000
v -0.302000 0.000000 -2.382000
v -0.049000 0.000000 -2.061000
v -0.049000 0.000000 -1.700000
v 0.049000 0.000000 -1.700000
v 0.049000 0.000000 -2.060000
v 0.302000 0.000000 -2.382000
v 0.184000 0.000000 -2.382000
vn -0.0000 1.0000 -0.0000
vt 0.375000 0.000000
vt 0.125000 0.000000
vt 0.250000 0.000000
vt 0.000000 0.000000
vt 0.875000 0.000000
vt 1.000000 0.000000
vt 0.750000 0.000000
vt 0.500000 0.000000
vt 0.625000 0.000000
s 0
f 12/5/7 10/6/7 11/7/7
f 12/5/7 9/8/7 10/6/7
f 9/8/7 16/9/7 17/10/7
f 9/8/7 15/11/7 16/9/7
f 12/5/7 15/11/7 9/8/7
f 13/12/7 15/11/7 12/5/7
f 13/12/7 14/13/7 15/11/7
o Text.001
v 2.333000 0.000000 -0.382000
v 2.215000 0.000000 -0.382000
v 2.002000 0.000000 -0.122000
v 1.788000 0.000000 -0.382000
v 1.669000 0.000000 -0.382000
v 1.942000 0.000000 -0.053000
v 1.648000 0.000000 0.300000
v 1.767000 0.000000 0.300000
v 2.002000 0.000000 0.018000
v 2.234000 0.000000 0.300000
v 2.352000 0.000000 0.300000
v 2.061000 0.000000 -0.053000
vn -0.0000 1.0000 -0.0000
vt 0.454545 0.000000
vt 0.272727 0.000000
vt 0.363636 0.000000
vt 0.181818 0.000000
vt 0.000000 0.000000
vt 0.090909 0.000000
vt 1.000000 0.000000
vt 0.545455 0.000000
vt 0.727273 0.000000
vt 0.909091 0.000000
vt 0.636364 0.000000
vt 0.818182 0.000000
s 0
f 23/14/8 21/15/8 22/16/8
f 23/14/8 20/17/8 21/15/8
f 20/17/8 18/18/8 19/19/8
f 20/17/8 29/20/8 18/18/8
f 23/14/8 29/20/8 20/17/8
f 24/21/8 29/20/8 23/14/8
f 24/21/8 26/22/8 29/20/8
f 26/22/8 28/23/8 29/20/8
f 24/21/8 25/24/8 26/22/8
f 27/25/8 28/23/8 26/22/8
o Text.002
v 0.127000 2.294000 0.000000
v -0.307000 1.700000 -0.000000
v 0.308000 1.700000 -0.000000
v 0.308000 1.788000 -0.000000
v -0.126000 1.788000 -0.000000
v 0.308000 2.382000 0.000000
v -0.280000 2.382000 0.000000
v -0.280000 2.294000 0.000000
vn -0.0000 -0.0000 1.0000
vt 1.000000 0.000000
vt 0.714286 0.000000
vt 0.857143 0.000000
vt 0.000000 0.000000
vt 0.571429 0.000000
vt 0.142857 0.000000
vt 0.428571 0.000000
vt 0.285714 0.000000
s 0
f 37/26/9 35/27/9 36/28/9
f 37/26/9 30/29/9 35/27/9
f 30/29/9 34/30/9 35/27/9
f 31/31/9 34/30/9 30/29/9
f 31/31/9 33/32/9 34/30/9
f 31/31/9 32/33/9 33/32/9
