# Blender 4.3.0
# www.blender.org
o Cylinder.002
v -0.008159 0.476414 0.000000 0.0000 0.0000 1.0000
v -0.008159 -0.000000 -0.000000 0.0000 0.0000 1.0000
v 0.004079 0.476414 0.007066 0.0000 0.0000 1.0000
v 0.004079 -0.000000 0.007066 0.0000 0.0000 1.0000
v 0.004079 0.476414 -0.007066 0.0000 0.0000 1.0000
v 0.004079 0.000000 -0.007066 0.0000 0.0000 1.0000
v -0.000000 0.500000 0.000000 0.0000 0.0000 1.0000
v 0.012447 0.465112 0.021559 0.0000 0.0000 1.0000
v -0.024894 0.465112 0.000000 0.0000 0.0000 1.0000
v 0.012447 0.465112 -0.021559 0.0000 0.0000 1.0000
v 0.000000 0.008159 -0.476414 0.0000 1.0000 0.0000
v 0.000000 0.008159 -0.000000 0.0000 1.0000 0.0000
v 0.007066 -0.004079 -0.476414 0.0000 1.0000 0.0000
v 0.007066 -0.004079 0.000000 0.0000 1.0000 0.0000
v -0.007066 -0.004079 -0.476414 0.0000 1.0000 0.0000
v -0.007066 -0.004079 -0.000000 0.0000 1.0000 0.0000
v 0.000000 0.000000 -0.500000 0.0000 1.0000 0.0000
v 0.021559 -0.012447 -0.465112 0.0000 1.0000 0.0000
v 0.000000 0.024894 -0.465112 0.0000 1.0000 0.0000
v -0.021559 -0.012447 -0.465112 0.0000 1.0000 0.0000
v 0.476414 0.008159 0.000000 1.0000 0.0000 0.0000
v 0.000000 0.008159 -0.000000 1.0000 0.0000 0.0000
v 0.476414 -0.004079 0.007066 1.0000 0.0000 0.0000
v -0.000000 -0.004079 0.007066 1.0000 0.0000 0.0000
v 0.476414 -0.004079 -0.007066 1.0000 0.0000 0.0000
v 0.000000 -0.004079 -0.007066 1.0000 0.0000 0.0000
v 0.500000 0.000000 0.000000 1.0000 0.0000 0.0000
v 0.465112 -0.012447 0.021559 1.0000 0.0000 0.0000
v 0.465112 0.024894 0.000000 1.0000 0.0000 0.0000
v 0.465112 -0.012447 -0.021559 1.0000 0.0000 0.0000
v -0.016214 -0.016214 0.016214 1.0000 1.0000 1.0000
v -0.016214 0.016214 0.016214 1.0000 1.0000 1.0000
v -0.016214 -0.016214 -0.016214 1.0000 1.0000 1.0000
v -0.016214 0.016214 -0.016214 1.0000 1.0000 1.0000
v 0.016214 -0.016214 0.016214 1.0000 1.0000 1.0000
v 0.016214 0.016214 0.016214 1.0000 1.0000 1.0000
v 0.016214 -0.016214 -0.016214 1.0000 1.0000 1.0000
v 0.016214 0.016214 -0.016214 1.0000 1.0000 1.0000
vn -1.0000 -0.0000 -0.0000
vn 0.5000 -0.0000 0.8660
vn 0.5000 -0.0000 -0.8660
vn -0.4070 -0.5808 0.7050
vn -0.4070 -0.5808 -0.7050
vn -0.0000 -1.0000 -0.0000
vn 0.8140 -0.5808 -0.0000
vn -0.0000 1.0000 -0.0000
vn 0.8660 -0.5000 -0.0000
vn -0.8660 -0.5000 -0.0000
vn 0.7050 0.4070 0.5808
vn -0.7050 0.4070 0.5808
vn -0.0000 -0.0000 1.0000
vn -0.0000 -0.8140 0.5808
vn -0.0000 -0.5000 0.8660
vn -0.0000 -0.5000 -0.8660
vn -0.5808 0.4070 0.7050
vn -0.5808 0.4070 -0.7050
vn -0.5808 -0.8140 -0.0000
vn -0.0000 -0.0000 -1.0000
vn 1.0000 -0.0000 -0.0000
vt 1.000000 1.000000
vt 0.666667 0.500000
vt 1.000000 0.500000
vt 0.666667 1.000000
vt 0.333333 0.500000
vt 0.333333 1.000000
vt -0.000000 0.500000
vt 0.000000 0.000000
vt 0.625000 0.000000
vt 0.375000 0.250000
vt 0.375000 0.000000
vt 0.625000 0.250000
vt 0.375000 0.500000
vt 0.625000 0.500000
vt 0.375000 0.750000
vt 0.625000 0.750000
vt 0.375000 1.000000
vt 0.125000 0.750000
vt 0.125000 0.500000
vt 0.875000 0.500000
vt -0.000000 1.000000
vt 0.625000 1.000000
vt 0.875000 0.750000
s 1
f 2/1/1 3/2/2 1/3/1
f 4/4/2 5/5/3 3/2/2
f 6/6/3 1/7/1 5/5/3
f 10/8/4 8/8/5 7/8/6
f 8/8/5 9/8/7 7/8/6
f 9/8/7 10/8/4 7/8/6
f 12/1/8 13/2/9 11/3/8
f 14/4/9 15/5/10 13/2/9
f 16/6/10 11/7/8 15/5/10
f 20/8/11 18/8/12 17/8/13
f 18/8/12 19/8/14 17/8/13
f 19/8/14 20/8/11 17/8/13
f 22/1/8 23/2/15 21/3/8
f 24/4/15 25/5/16 23/2/15
f 26/6/16 21/7/8 25/5/16
f 30/8/17 28/8/18 27/8/1
f 28/8/18 29/8/19 27/8/1
f 29/8/19 30/8/17 27/8/1
s 0
f 32/9/1 33/10/1 31/11/1
f 34/12/20 37/13/20 33/10/20
f 38/14/21 35/15/21 37/13/21
f 36/16/13 31/17/13 35/15/13
f 37/13/6 31/18/6 33/19/6
f 34/20/8 36/16/8 38/14/8
s 1
f 2/1/1 4/4/2 3/2/2
f 4/4/2 6/6/3 5/5/3
f 6/6/3 2/21/1 1/7/1
f 12/1/8 14/4/9 13/2/9
f 14/4/9 16/6/10 15/5/10
f 16/6/10 12/21/8 11/7/8
f 22/1/8 24/4/15 23/2/15
f 24/4/15 26/6/16 25/5/16
f 26/6/16 22/21/8 21/7/8
s 0
f 32/9/1 34/12/1 33/10/1
f 34/12/20 38/14/20 37/13/20
f 38/14/21 36/16/21 35/15/21
f 36/16/13 32/22/13 31/17/13
f 37/13/6 35/15/6 31/18/6
f 34/20/8 32/23/8 36/16/8
