# Blender 4.3.0
# www.blender.org
o Cylinder.002
v -0.016318 0.952828 0.000000 0.0000 0.0000 1.0000
v -0.016318 -0.000000 -0.000000 0.0000 0.0000 1.0000
v 0.008159 0.952828 0.014132 0.0000 0.0000 1.0000
v 0.008159 -0.000000 0.014131 0.0000 0.0000 1.0000
v 0.008159 0.952828 -0.014131 0.0000 0.0000 1.0000
v 0.008159 0.000000 -0.014131 0.0000 0.0000 1.0000
v -0.000000 1.000000 0.000000 0.0000 0.0000 1.0000
v 0.024894 0.930223 0.043117 0.0000 0.0000 1.0000
v -0.049787 0.930223 0.000000 0.0000 0.0000 1.0000
v 0.024894 0.930223 -0.043117 0.0000 0.0000 1.0000
v 0.000000 0.016318 -0.952828 0.0000 1.0000 0.0000
v 0.000000 0.016318 -0.000000 0.0000 1.0000 0.0000
v 0.014131 -0.008159 -0.952828 0.0000 1.0000 0.0000
v 0.014131 -0.008159 0.000000 0.0000 1.0000 0.0000
v -0.014131 -0.008159 -0.952828 0.0000 1.0000 0.0000
v -0.014131 -0.008159 -0.000000 0.0000 1.0000 0.0000
v 0.000000 0.000000 -1.000000 0.0000 1.0000 0.0000
v 0.043117 -0.024894 -0.930223 0.0000 1.0000 0.0000
v 0.000000 0.049787 -0.930223 0.0000 1.0000 0.0000
v -0.043117 -0.024894 -0.930223 0.0000 1.0000 0.0000
v 0.952828 0.016318 0.000000 1.0000 0.0000 0.0000
v 0.000000 0.016318 -0.000000 1.0000 0.0000 0.0000
v 0.952828 -0.008159 0.014132 1.0000 0.0000 0.0000
v -0.000000 -0.008159 0.014131 1.0000 0.0000 0.0000
v 0.952828 -0.008159 -0.014131 1.0000 0.0000 0.0000
v 0.000000 -0.008159 -0.014131 1.0000 0.0000 0.0000
v 1.000000 0.000000 0.000000 1.0000 0.0000 0.0000
v 0.930223 -0.024894 0.043117 1.0000 0.0000 0.0000
v 0.930223 0.049787 0.000000 1.0000 0.0000 0.0000
v 0.930223 -0.024894 -0.043117 1.0000 0.0000 0.0000
v -0.032427 -0.032427 0.032427 1.0000 1.0000 1.0000
v -0.032427 0.032427 0.032427 1.0000 1.0000 1.0000
v -0.032427 -0.032427 -0.032427 1.0000 1.0000 1.0000
v -0.032427 0.032427 -0.032427 1.0000 1.0000 1.0000
v 0.032427 -0.032427 0.032427 1.0000 1.0000 1.0000
v 0.032427 0.032427 0.032427 1.0000 1.0000 1.0000
v 0.032427 -0.032427 -0.032427 1.0000 1.0000 1.0000
v 0.032427 0.032427 -0.032427 1.0000 1.0000 1.0000
vn -1.0000 -0.0000 -0.0000
vn 0.5000 -0.0000 0.8660
vn 0.5000 -0.0000 -0.8660
vn 0.4070 0.5808 -0.7050
vn -0.0000 1.0000 -0.0000
vn 0.4070 0.5808 0.7050
vn -0.8140 0.5808 -0.0000
vn 0.8660 -0.5000 -0.0000
vn -0.8660 -0.5000 -0.0000
vn -0.7050 -0.4070 -0.5808
vn -0.0000 -0.0000 -1.0000
vn 0.7050 -0.4070 -0.5808
vn -0.0000 0.8140 -0.5808
vn -0.0000 -0.5000 0.8660
vn -0.0000 -0.5000 -0.8660
vn 0.5808 -0.4070 -0.7050
vn 1.0000 -0.0000 -0.0000
vn 0.5808 -0.4070 0.7050
vn 0.5808 0.8140 -0.0000
vn -0.0000 -0.0000 1.0000
vn -0.0000 -1.0000 -0.0000
vt 1.000000 1.000000
vt 0.666667 0.500000
vt 1.000000 0.500000
vt 0.666667 1.000000
vt 0.333333 0.500000
vt 0.333333 1.000000
vt -0.000000 0.500000
vt 0.000000 0.000000
vt 0.625000 0.000000
vt 0.375000 0.250000
vt 0.375000 0.000000
vt 0.625000 0.250000
vt 0.375000 0.500000
vt 0.625000 0.500000
vt 0.375000 0.750000
vt 0.625000 0.750000
vt 0.375000 1.000000
vt 0.125000 0.750000
vt 0.125000 0.500000
vt 0.875000 0.500000
vt -0.000000 1.000000
vt 0.625000 1.000000
vt 0.875000 0.750000
s 1
f 2/1/1 3/2/2 1/3/1
f 4/4/2 5/5/3 3/2/2
f 6/6/3 1/7/1 5/5/3
f 10/8/4 7/8/5 8/8/6
f 8/8/6 7/8/5 9/8/7
f 9/8/7 7/8/5 10/8/4
f 12/1/5 13/2/8 11/3/5
f 14/4/8 15/5/9 13/2/8
f 16/6/9 11/7/5 15/5/9
f 20/8/10 17/8/11 18/8/12
f 18/8/12 17/8/11 19/8/13
f 19/8/13 17/8/11 20/8/10
f 22/1/5 23/2/14 21/3/5
f 24/4/14 25/5/15 23/2/14
f 26/6/15 21/7/5 25/5/15
f 30/8/16 27/8/17 28/8/18
f 28/8/18 27/8/17 29/8/19
f 29/8/19 27/8/17 30/8/16
s 0
f 32/9/1 33/10/1 31/11/1
f 34/12/11 37/13/11 33/10/11
f 38/14/17 35/15/17 37/13/17
f 36/16/20 31/17/20 35/15/20
f 37/13/21 31/18/21 33/19/21
f 34/20/5 36/16/5 38/14/5
s 1
f 2/1/1 4/4/2 3/2/2
f 4/4/2 6/6/3 5/5/3
f 6/6/3 2/21/1 1/7/1
f 12/1/5 14/4/8 13/2/8
f 14/4/8 16/6/9 15/5/9
f 16/6/9 12/21/5 11/7/5
f 22/1/5 24/4/14 23/2/14
f 24/4/14 26/6/15 25/5/15
f 26/6/15 22/21/5 21/7/5
s 0
f 32/9/1 34/12/1 33/10/1
f 34/12/11 38/14/11 37/13/11
f 38/14/17 36/16/17 35/15/17
f 36/16/20 32/22/20 31/17/20
f 37/13/21 35/15/21 31/18/21
f 34/20/5 32/23/5 36/16/5
